<svg width="1439" height="211" viewBox="0 0 1439 211" fill="none" xmlns="http://www.w3.org/2000/svg">
<path d="M62.5 14.5C28.3679 14.5 0 23.5 0 23.5V178C0 178 352.225 192.808 579 203C688.578 207.925 751.813 210.052 861.5 210.5C1087.83 211.425 1438.5 156 1438.5 156V32.5C1433.66 39.8967 1431.78 44.1516 1430.5 52C1430.5 52 1403.86 44 1387.5 54C1367 66.5268 1367 85 1367 85C1367 85 1347.12 83.3844 1335 86.5C1317.5 91 1312 101.5 1312 101.5C1312 101.5 1301.5 91 1275 91C1253.5 91 1234.5 106.5 1234.5 106.5C1234.5 106.5 1222 48.1598 1128.5 46.5C1044 45 1017 99 1017 99C1017 99 1007.5 90.4091 987.5 87.5C957 83.0636 950 97 950 97C950 97 948.5 81 928.5 76C898.5 68.5 890 83.5 890 83.5C890 83.5 887.5 -2 763.5 0.499971C672 2.34471 669.5 76 669.5 76C669.5 76 655 70.7059 637 71.5C603 73 595.5 93 595.5 93C595.5 93 564.5 80 539.5 80C487 80 475 103.5 475 103.5C475 103.5 466.5 86 412.5 85C379.472 84.3884 357.5 97.5 357.5 97.5C357.5 97.5 353 74.4 328.5 69.5C284 60.6 279.5 93 279.5 93C279.5 93 280.413 72.3885 255.5 69.5C221 65.5 207 76 207 76C207 76 219.999 49.8286 179 38.5C141 28 115.5 41 115.5 41C115.5 41 115.5 14.5 62.5 14.5Z" fill="#CAE4E3"/>
</svg>
