<svg width="1439" height="370" viewBox="0 0 1439 370" fill="none" xmlns="http://www.w3.org/2000/svg">
<path d="M120 116.5C86.8171 108.446 35 137 35 137L0 144V289L527.5 360L867.5 369.5L1439.5 262.5V0C1368.5 4 1290 59.5 1330.5 122C1305.5 120.5 1281.5 128.5 1281.5 149C1258.5 127 1196 132 1185.5 156C1145.82 146.556 1105.5 157.5 1117 182.5C1090 171 1067.5 176 1057.5 196C1041 163.5 1008 176 1001 200.5C979 184 934 186.5 911.5 203.5C879.5 180.5 853.734 183.765 818 196C802.588 178.282 789.079 176.72 760 182.5C749 98.5 598 111 593.5 187.5C564.5 178 554.5 180 545.5 200.5C531 187.5 507 187.5 493 204.5C473 147.5 354.5 143.5 326 207C299.764 193.042 286.754 192.964 266 204C258 191.5 244 188 226 190C222 167 200.5 160 177.5 167C177.5 167 171.5 129 120 116.5Z" fill="#ECF4E9"/>
</svg>
