<svg width="1440" height="380" viewBox="0 0 1440 380" fill="none" xmlns="http://www.w3.org/2000/svg">
<path d="M370.5 29C256 59.5 0 126.5 0 126.5V379.5H1440V16C1440 16 1261.67 -18.5866 1156.5 16C1140.41 21.2904 1132.43 27.3927 1116 31.5C1100 35.5 1090.34 27.8413 1071 30.5C1045 34.0734 989 75.6406 971.5 74C907.5 68 889.077 81.2881 836.5 88C823.307 89.6842 812.027 85.7795 800.5 81.6292L799.617 81.3109C790.895 78.1677 782 74.9621 772 74C755.479 72.4105 763.5 76.5 735 74C706.5 71.5 687.392 53.4691 655 48C635.685 44.7388 619.5 50.5 605 44C590.5 37.5 582.5 23 570 23C511.5 23 519.5 8.99999 485.5 5.99999C473.86 4.97297 470.182 10.7694 458.5 11C445.275 11.261 438.066 3.93699 425 5.99999C406 9.00001 396.5 22.0742 370.5 29Z" fill="#5E8DB5"/>
</svg>
