<svg width="1439" height="288" viewBox="0 0 1439 288" fill="none" xmlns="http://www.w3.org/2000/svg">
<path d="M338 108H0V288H1439V0.5C1439 0.5 1330.5 48.5 1291.5 50.5C1261.03 52.0624 1254.38 41.9303 1230.5 45C1207.91 47.9028 1200.74 61.6052 1179.5 64.5C1165.36 66.4267 1157.42 59.2327 1146.5 62.5C1083 81.5 1078.1 70.78 1042.5 81.5C1026.88 86.2029 1014.58 99.0234 995 106.5C971.988 115.285 947.89 119.407 933.5 120.5C915.053 121.901 899.15 109.763 881.5 106.5C865.947 103.625 855.649 107.291 840 105C815.281 101.382 804.739 86.941 780.5 81.5C762.09 77.3675 750.085 83.8386 732.5 77C714.5 70 714.5 60.5 705 56C692.059 49.87 688 58 665 52C642.693 46.1809 638 37.7487 623.5 38C610.714 38.2216 608.253 43.4475 595.5 42.5C585.298 41.742 580.018 35.3868 570 36.5C552 38.5 544 56.5 506 63C483.5 66.8487 462 63 427.5 70.5C390.469 78.5502 338 108 338 108Z" fill="#A6C6D9"/>
</svg>
