<svg width="1439" height="358" viewBox="0 0 1439 358" fill="none" xmlns="http://www.w3.org/2000/svg">
<path d="M213 1.49999C182.949 -7.63326 53.1667 73 0 113V357.5H1438.5L1440.5 123.5C1440.5 123.5 1405.82 96.7221 1382.5 85C1285 36 1269 59.5 1225 64C1182.08 68.3894 1133 17.5 1109.5 19.5C1083.19 21.7392 1068.08 52.4294 1038.5 62.5C1023.06 67.7574 1013.17 65.238 999.5 70.5C988.088 74.8938 985.5 84.5 979 86.5C973.143 88.3022 973.862 84.9784 967 84.5C960.138 84.0216 956.5 92.8 950.5 97C944.5 101.2 927.5 98.5 899.5 100C874 103 854.656 90.5 844 90.5C821 90.5 807.153 104.022 785 104C764.055 103.98 748.491 92.229 739.5 91.5C721 90 725.586 96.8974 701 95.5C683.597 94.5108 685 88.5 659.5 88.5C634 88.5 626.5 101 596 101C560.102 101 536.5 83 504 80C471.5 77 439.5 49 374.5 44.5C246.209 35.6183 264 17 213 1.49999Z" fill="#79A0C8"/>
</svg>
