<svg width="483" height="187" viewBox="0 0 483 187" fill="none" xmlns="http://www.w3.org/2000/svg">
<path d="M74.2 74.7C69.6 74.7 65.5333 73.9 62 72.3C58.5333 70.7 55.8 68.4667 53.8 65.6C51.8 62.7333 50.7333 59.5333 50.6 56H58C58.3333 59.4 59.8333 62.4 62.5 65C65.1667 67.5333 69.0667 68.8 74.2 68.8C78.9333 68.8 82.6667 67.6 85.4 65.2C88.2 62.7333 89.6 59.6333 89.6 55.9C89.6 52.9 88.8333 50.5 87.3 48.7C85.7667 46.8333 83.8667 45.4667 81.6 44.6C79.3333 43.6667 76.2 42.6667 72.2 41.6C67.5333 40.3333 63.8333 39.1 61.1 37.9C58.3667 36.7 56.0333 34.8333 54.1 32.3C52.1667 29.7667 51.2 26.3333 51.2 22C51.2 18.4 52.1333 15.2 54 12.4C55.8667 9.53333 58.5 7.3 61.9 5.7C65.3 4.1 69.2 3.3 73.6 3.3C80.0667 3.3 85.2667 4.9 89.2 8.1C93.2 11.2333 95.5 15.3 96.1 20.3H88.5C88.0333 17.4333 86.4667 14.9 83.8 12.7C81.1333 10.4333 77.5333 9.3 73 9.3C68.8 9.3 65.3 10.4333 62.5 12.7C59.7 14.9 58.3 17.9333 58.3 21.8C58.3 24.7333 59.0667 27.1 60.6 28.9C62.1333 30.7 64.0333 32.0667 66.3 33C68.6333 33.9333 71.7667 34.9333 75.7 36C80.2333 37.2667 83.9 38.5333 86.7 39.8C89.5 41 91.8667 42.8667 93.8 45.4C95.7333 47.9333 96.7 51.3333 96.7 55.6C96.7 58.8667 95.8333 61.9667 94.1 64.9C92.3667 67.8333 89.8 70.2 86.4 72C83 73.8 78.9333 74.7 74.2 74.7ZM107.027 46.6C107.027 41 108.127 36.1 110.327 31.9C112.593 27.6333 115.693 24.3667 119.627 22.1C123.627 19.7667 128.127 18.6 133.127 18.6C138.327 18.6 142.793 19.8 146.527 22.2C150.327 24.6 153.06 27.6667 154.727 31.4V19.4H161.727V74H154.727V61.9C152.993 65.6333 150.227 68.7333 146.427 71.2C142.693 73.6 138.227 74.8 133.027 74.8C128.093 74.8 123.627 73.6333 119.627 71.3C115.693 68.9667 112.593 65.6667 110.327 61.4C108.127 57.1333 107.027 52.2 107.027 46.6ZM154.727 46.7C154.727 42.3 153.827 38.4333 152.027 35.1C150.227 31.7667 147.76 29.2 144.627 27.4C141.56 25.6 138.16 24.7 134.427 24.7C130.56 24.7 127.093 25.5667 124.027 27.3C120.96 29.0333 118.527 31.5667 116.727 34.9C114.993 38.1667 114.127 42.0667 114.127 46.6C114.127 51.0667 114.993 55 116.727 58.4C118.527 61.7333 120.96 64.3 124.027 66.1C127.093 67.8333 130.56 68.7 134.427 68.7C138.16 68.7 141.56 67.8 144.627 66C147.76 64.2 150.227 61.6333 152.027 58.3C153.827 54.9667 154.727 51.1 154.727 46.7ZM242.707 18.4C249.107 18.4 254.307 20.4333 258.307 24.5C262.374 28.5 264.407 34.3333 264.407 42V74H257.507V42.8C257.507 36.8667 256.074 32.3333 253.207 29.2C250.34 26.0667 246.44 24.5 241.507 24.5C236.374 24.5 232.274 26.2 229.207 29.6C226.14 33 224.607 37.9333 224.607 44.4V74H217.707V42.8C217.707 36.8667 216.274 32.3333 213.407 29.2C210.54 26.0667 206.607 24.5 201.607 24.5C196.474 24.5 192.374 26.2 189.307 29.6C186.24 33 184.707 37.9333 184.707 44.4V74H177.707V19.4H184.707V28.8C186.44 25.4 188.907 22.8333 192.107 21.1C195.307 19.3 198.874 18.4 202.807 18.4C207.54 18.4 211.674 19.5333 215.207 21.8C218.807 24.0667 221.407 27.4 223.007 31.8C224.474 27.4667 226.974 24.1667 230.507 21.9C234.107 19.5667 238.174 18.4 242.707 18.4ZM327.253 19.4V74H320.253V64.4C318.653 67.8 316.186 70.4 312.853 72.2C309.52 74 305.786 74.9 301.653 74.9C295.12 74.9 289.786 72.9 285.653 68.9C281.52 64.8333 279.453 58.9667 279.453 51.3V19.4H286.353V50.5C286.353 56.4333 287.82 60.9667 290.753 64.1C293.753 67.2333 297.82 68.8 302.953 68.8C308.22 68.8 312.42 67.1333 315.553 63.8C318.686 60.4667 320.253 55.5667 320.253 49.1V19.4H327.253ZM392.634 43.9C392.634 46.3 392.568 48.1333 392.434 49.4H347.134C347.334 53.5333 348.334 57.0667 350.134 60C351.934 62.9333 354.301 65.1667 357.234 66.7C360.168 68.1667 363.368 68.9 366.834 68.9C371.368 68.9 375.168 67.8 378.234 65.6C381.368 63.4 383.434 60.4333 384.434 56.7H391.834C390.501 62.0333 387.634 66.4 383.234 69.8C378.901 73.1333 373.434 74.8 366.834 74.8C361.701 74.8 357.101 73.6667 353.034 71.4C348.968 69.0667 345.768 65.8 343.434 61.6C341.168 57.3333 340.034 52.3667 340.034 46.7C340.034 41.0333 341.168 36.0667 343.434 31.8C345.701 27.5333 348.868 24.2667 352.934 22C357.001 19.7333 361.634 18.6 366.834 18.6C372.034 18.6 376.568 19.7333 380.434 22C384.368 24.2667 387.368 27.3333 389.434 31.2C391.568 35 392.634 39.2333 392.634 43.9ZM385.534 43.7C385.601 39.6333 384.768 36.1667 383.034 33.3C381.368 30.4333 379.068 28.2667 376.134 26.8C373.201 25.3333 370.001 24.6 366.534 24.6C361.334 24.6 356.901 26.2667 353.234 29.6C349.568 32.9333 347.534 37.6333 347.134 43.7H385.534ZM412.441 -9.53674e-07V74H405.441V-9.53674e-07H412.441Z" fill="white"/>
<path d="M60.97 185L30.29 144.7V185H8.06V93.74H30.29V133.78L60.71 93.74H86.84L51.48 138.46L88.14 185H60.97ZM170.335 112.46V185H148.105V175.12C145.851 178.327 142.775 180.927 138.875 182.92C135.061 184.827 130.815 185.78 126.135 185.78C120.588 185.78 115.691 184.567 111.445 182.14C107.198 179.627 103.905 176.03 101.565 171.35C99.2245 166.67 98.0545 161.167 98.0545 154.84V112.46H120.155V151.85C120.155 156.703 121.411 160.473 123.925 163.16C126.438 165.847 129.818 167.19 134.065 167.19C138.398 167.19 141.821 165.847 144.335 163.16C146.848 160.473 148.105 156.703 148.105 151.85V112.46H170.335ZM208.532 124.55C211.132 120.563 214.382 117.443 218.282 115.19C222.182 112.85 226.516 111.68 231.282 111.68V135.21H225.172C219.626 135.21 215.466 136.423 212.692 138.85C209.919 141.19 208.532 145.35 208.532 151.33V185H186.302V112.46H208.532V124.55ZM286.108 111.68C294.601 111.68 301.361 114.453 306.388 120C311.501 125.46 314.058 133 314.058 142.62V185H291.958V145.61C291.958 140.757 290.701 136.987 288.188 134.3C285.674 131.613 282.294 130.27 278.048 130.27C273.801 130.27 270.421 131.613 267.908 134.3C265.394 136.987 264.138 140.757 264.138 145.61V185H241.908V112.46H264.138V122.08C266.391 118.873 269.424 116.36 273.238 114.54C277.051 112.633 281.341 111.68 286.108 111.68ZM325.085 148.6C325.085 141.147 326.472 134.603 329.245 128.97C332.105 123.337 335.962 119.003 340.815 115.97C345.669 112.937 351.085 111.42 357.065 111.42C362.179 111.42 366.642 112.46 370.455 114.54C374.355 116.62 377.345 119.35 379.425 122.73V112.46H401.655V185H379.425V174.73C377.259 178.11 374.225 180.84 370.325 182.92C366.512 185 362.049 186.04 356.935 186.04C351.042 186.04 345.669 184.523 340.815 181.49C335.962 178.37 332.105 173.993 329.245 168.36C326.472 162.64 325.085 156.053 325.085 148.6ZM379.425 148.73C379.425 143.183 377.865 138.807 374.745 135.6C371.712 132.393 367.985 130.79 363.565 130.79C359.145 130.79 355.375 132.393 352.255 135.6C349.222 138.72 347.705 143.053 347.705 148.6C347.705 154.147 349.222 158.567 352.255 161.86C355.375 165.067 359.145 166.67 363.565 166.67C367.985 166.67 371.712 165.067 374.745 161.86C377.865 158.653 379.425 154.277 379.425 148.73ZM447.248 186.04C440.921 186.04 435.288 184.957 430.348 182.79C425.408 180.623 421.508 177.677 418.648 173.95C415.788 170.137 414.184 165.89 413.838 161.21H435.808C436.068 163.723 437.238 165.76 439.318 167.32C441.398 168.88 443.954 169.66 446.988 169.66C449.761 169.66 451.884 169.14 453.358 168.1C454.918 166.973 455.698 165.543 455.698 163.81C455.698 161.73 454.614 160.213 452.448 159.26C450.281 158.22 446.771 157.093 441.918 155.88C436.718 154.667 432.384 153.41 428.918 152.11C425.451 150.723 422.461 148.6 419.948 145.74C417.434 142.793 416.178 138.85 416.178 133.91C416.178 129.75 417.304 125.98 419.558 122.6C421.898 119.133 425.278 116.403 429.698 114.41C434.204 112.417 439.534 111.42 445.688 111.42C454.788 111.42 461.938 113.673 467.138 118.18C472.424 122.687 475.458 128.667 476.238 136.12H455.698C455.351 133.607 454.224 131.613 452.318 130.14C450.498 128.667 448.071 127.93 445.038 127.93C442.438 127.93 440.444 128.45 439.058 129.49C437.671 130.443 436.978 131.787 436.978 133.52C436.978 135.6 438.061 137.16 440.228 138.2C442.481 139.24 445.948 140.28 450.628 141.32C456.001 142.707 460.378 144.093 463.758 145.48C467.138 146.78 470.084 148.947 472.598 151.98C475.198 154.927 476.541 158.913 476.628 163.94C476.628 168.187 475.414 172 472.988 175.38C470.648 178.673 467.224 181.273 462.718 183.18C458.298 185.087 453.141 186.04 447.248 186.04Z" fill="white"/>
</svg>
