<svg width="321" height="63" viewBox="0 0 321 63" fill="none" xmlns="http://www.w3.org/2000/svg">
<path d="M38.9581 22.96C38.9581 25.7867 38.2915 28.4533 36.9581 30.96C35.6248 33.4667 33.4915 35.52 30.5581 37.12C27.6248 38.6667 23.8648 39.44 19.2781 39.44H9.19813V62H0.0781252V6.4H19.2781C23.5448 6.4 27.1448 7.14666 30.0781 8.64C33.0648 10.08 35.2781 12.0533 36.7181 14.56C38.2115 17.0667 38.9581 19.8667 38.9581 22.96ZM19.2781 32C22.7448 32 25.3315 31.2267 27.0381 29.68C28.7448 28.08 29.5981 25.84 29.5981 22.96C29.5981 16.88 26.1581 13.84 19.2781 13.84H9.19813V32H19.2781ZM66.7763 62.72C62.6163 62.72 58.8563 61.7867 55.4963 59.92C52.1363 58 49.4963 55.3333 47.5763 51.92C45.6563 48.4533 44.6963 44.4533 44.6963 39.92C44.6963 35.44 45.6829 31.4667 47.6563 28C49.6296 24.5333 52.3229 21.8667 55.7363 20C59.1496 18.1333 62.9629 17.2 67.1763 17.2C71.3896 17.2 75.2029 18.1333 78.6163 20C82.0296 21.8667 84.7229 24.5333 86.6963 28C88.6696 31.4667 89.6563 35.44 89.6563 39.92C89.6563 44.4 88.6429 48.3733 86.6163 51.84C84.5896 55.3067 81.8163 58 78.2963 59.92C74.8296 61.7867 70.9896 62.72 66.7763 62.72ZM66.7763 54.8C69.1229 54.8 71.3096 54.24 73.3363 53.12C75.4163 52 77.0963 50.32 78.3763 48.08C79.6563 45.84 80.2963 43.12 80.2963 39.92C80.2963 36.72 79.6829 34.0267 78.4563 31.84C77.2296 29.6 75.6029 27.92 73.5763 26.8C71.5496 25.68 69.3629 25.12 67.0163 25.12C64.6696 25.12 62.4829 25.68 60.4563 26.8C58.4829 27.92 56.9096 29.6 55.7363 31.84C54.5629 34.0267 53.9763 36.72 53.9763 39.92C53.9763 44.6667 55.1763 48.3467 57.5763 50.96C60.0296 53.52 63.0963 54.8 66.7763 54.8ZM107.792 24.32C109.125 22.08 110.885 20.3467 113.072 19.12C115.312 17.84 117.952 17.2 120.992 17.2V26.64H118.672C115.099 26.64 112.379 27.5467 110.512 29.36C108.699 31.1733 107.792 34.32 107.792 38.8V62H98.6719V17.92H107.792V24.32ZM140.015 25.36V49.76C140.015 51.4133 140.388 52.6133 141.135 53.36C141.935 54.0533 143.268 54.4 145.135 54.4H150.735V62H143.535C139.428 62 136.282 61.04 134.095 59.12C131.908 57.2 130.815 54.08 130.815 49.76V25.36H125.615V17.92H130.815V6.96H140.015V17.92H150.735V25.36H140.015ZM177.621 25.36H169.461V62H160.261V25.36H155.061V17.92H160.261V14.8C160.261 9.73333 161.594 6.05333 164.261 3.76C166.981 1.41333 171.221 0.239999 176.981 0.239999V7.84C174.207 7.84 172.261 8.37333 171.141 9.44C170.021 10.4533 169.461 12.24 169.461 14.8V17.92H177.621V25.36ZM204.823 62.72C200.663 62.72 196.903 61.7867 193.543 59.92C190.183 58 187.543 55.3333 185.623 51.92C183.703 48.4533 182.743 44.4533 182.743 39.92C182.743 35.44 183.73 31.4667 185.703 28C187.676 24.5333 190.37 21.8667 193.783 20C197.196 18.1333 201.01 17.2 205.223 17.2C209.436 17.2 213.25 18.1333 216.663 20C220.076 21.8667 222.77 24.5333 224.743 28C226.716 31.4667 227.703 35.44 227.703 39.92C227.703 44.4 226.69 48.3733 224.663 51.84C222.636 55.3067 219.863 58 216.343 59.92C212.876 61.7867 209.036 62.72 204.823 62.72ZM204.823 54.8C207.17 54.8 209.356 54.24 211.383 53.12C213.463 52 215.143 50.32 216.423 48.08C217.703 45.84 218.343 43.12 218.343 39.92C218.343 36.72 217.73 34.0267 216.503 31.84C215.276 29.6 213.65 27.92 211.623 26.8C209.596 25.68 207.41 25.12 205.063 25.12C202.716 25.12 200.53 25.68 198.503 26.8C196.53 27.92 194.956 29.6 193.783 31.84C192.61 34.0267 192.023 36.72 192.023 39.92C192.023 44.6667 193.223 48.3467 195.623 50.96C198.076 53.52 201.143 54.8 204.823 54.8ZM245.839 2.8V62H236.719V2.8H245.839ZM262.453 12.08C260.799 12.08 259.413 11.52 258.293 10.4C257.173 9.28 256.613 7.89333 256.613 6.24C256.613 4.58666 257.173 3.2 258.293 2.08C259.413 0.959997 260.799 0.399997 262.453 0.399997C264.053 0.399997 265.413 0.959997 266.533 2.08C267.653 3.2 268.213 4.58666 268.213 6.24C268.213 7.89333 267.653 9.28 266.533 10.4C265.413 11.52 264.053 12.08 262.453 12.08ZM266.933 17.92V62H257.813V17.92H266.933ZM298.026 62.72C293.866 62.72 290.106 61.7867 286.746 59.92C283.386 58 280.746 55.3333 278.826 51.92C276.906 48.4533 275.946 44.4533 275.946 39.92C275.946 35.44 276.933 31.4667 278.906 28C280.88 24.5333 283.573 21.8667 286.986 20C290.4 18.1333 294.213 17.2 298.426 17.2C302.64 17.2 306.453 18.1333 309.866 20C313.28 21.8667 315.973 24.5333 317.946 28C319.92 31.4667 320.906 35.44 320.906 39.92C320.906 44.4 319.893 48.3733 317.866 51.84C315.84 55.3067 313.066 58 309.546 59.92C306.08 61.7867 302.24 62.72 298.026 62.72ZM298.026 54.8C300.373 54.8 302.56 54.24 304.586 53.12C306.666 52 308.346 50.32 309.626 48.08C310.906 45.84 311.546 43.12 311.546 39.92C311.546 36.72 310.933 34.0267 309.706 31.84C308.48 29.6 306.853 27.92 304.826 26.8C302.8 25.68 300.613 25.12 298.266 25.12C295.92 25.12 293.733 25.68 291.706 26.8C289.733 27.92 288.16 29.6 286.986 31.84C285.813 34.0267 285.226 36.72 285.226 39.92C285.226 44.6667 286.426 48.3467 288.826 50.96C291.28 53.52 294.346 54.8 298.026 54.8Z" fill="#E4E4E4"/>
</svg>
