<svg width="187" height="362" viewBox="0 0 187 362" fill="none" xmlns="http://www.w3.org/2000/svg">
<path d="M146 53.5C150.76 28.6795 118 0.5 118 0.5C118 0.5 124.192 2.5069 127.5 5.5C138 15 148.273 22.7885 157.5 35C174.5 57.5 169.429 68.5405 157.5 83C141 103 82.5 103 79 125C77.0999 136.943 113 143.5 142.5 155.5C163.276 163.951 188.5 173.5 186 193C183.046 216.041 131.125 211 128 226C125.5 238 134.5 240.5 152.5 248.5C167.171 255.02 181.147 258.587 185.5 276C191 298 152.5 362 152.5 362L105 354C105 354 100.878 299.899 83.4999 271.5C63 238 2.50005 235 0.500001 227.5C-3.50002 212.5 17.502 207.077 35.4999 205C48.4999 203.5 109 208.5 113.5 190.5C122.656 153.875 22.4999 169.5 28.9999 133.5C37.8077 84.7181 137.657 97 146 53.5Z" fill="#A5CBEF"/>
</svg>
