<svg width="1437" height="204" viewBox="0 0 1437 204" fill="none" xmlns="http://www.w3.org/2000/svg">
<path fill-rule="evenodd" clip-rule="evenodd" d="M0 0V120.5C0 120.5 28.3679 111.5 62.5 111.5C115.5 111.5 115.5 138 115.5 138C115.5 138 141 125 179 135.5C219.999 146.829 207 173 207 173C207 173 221 162.5 255.5 166.5C280.413 169.388 279.5 190 279.5 190C279.5 190 284 157.6 328.5 166.5C353 171.4 357.5 194.5 357.5 194.5C357.5 194.5 379.472 181.388 412.5 182C466.5 183 475 200.5 475 200.5C475 200.5 487 177 539.5 177C564.5 177 595.5 190 595.5 190C595.5 190 603 170 637 168.5C655 167.706 669.5 173 669.5 173C669.5 173 672 99.3447 763.5 97.5C887.5 95 890 180.5 890 180.5C890 180.5 898.5 165.5 928.5 173C948.5 178 950 194 950 194C950 194 957 180.064 987.5 184.5C1007.5 187.409 1017 196 1017 196C1017 196 1044 142 1128.5 143.5C1222 145.16 1234.5 203.5 1234.5 203.5C1234.5 203.5 1253.5 188 1275 188C1301.5 188 1312 198.5 1312 198.5C1312 198.5 1317.5 188 1335 183.5C1347.12 180.384 1367 182 1367 182C1367 182 1367 163.527 1387.5 151C1403.86 141 1430.5 149 1430.5 149C1431.59 142.338 1433.11 138.265 1436.5 132.662V0H0Z" fill="#6BBBD9"/>
</svg>
