<svg width="1419" height="609" viewBox="0 0 1419 609" fill="none" xmlns="http://www.w3.org/2000/svg">
<circle cx="289" cy="536" r="3" fill="white" fill-opacity="0.3"/>
<circle cx="197" cy="485" r="3" fill="white" fill-opacity="0.3"/>
<circle cx="123" cy="504" r="3" fill="white" fill-opacity="0.3"/>
<circle cx="224" cy="496" r="3" fill="white" fill-opacity="0.3"/>
<circle cx="169" cy="446" r="3" fill="white" fill-opacity="0.3"/>
<circle cx="77" cy="395" r="3" fill="white" fill-opacity="0.3"/>
<circle cx="3" cy="414" r="3" fill="white" fill-opacity="0.3"/>
<circle cx="104" cy="406" r="3" fill="white" fill-opacity="0.3"/>
<circle cx="559" cy="606" r="3" fill="white" fill-opacity="0.3"/>
<circle cx="467" cy="555" r="3" fill="white" fill-opacity="0.3"/>
<circle cx="393" cy="574" r="3" fill="white" fill-opacity="0.3"/>
<circle cx="494" cy="566" r="3" fill="white" fill-opacity="0.3"/>
<circle cx="439" cy="516" r="3" fill="white" fill-opacity="0.3"/>
<circle cx="347" cy="465" r="3" fill="white" fill-opacity="0.3"/>
<circle cx="273" cy="484" r="3" fill="white" fill-opacity="0.3"/>
<circle cx="374" cy="476" r="3" fill="white" fill-opacity="0.3"/>
<circle cx="429" cy="258" r="3" fill="white" fill-opacity="0.3"/>
<circle cx="643" cy="374" r="3" fill="white" fill-opacity="0.3"/>
<circle cx="744" cy="366" r="3" fill="white" fill-opacity="0.3"/>
<circle cx="689" cy="316" r="3" fill="white" fill-opacity="0.3"/>
<circle cx="597" cy="265" r="3" fill="white" fill-opacity="0.3"/>
<circle cx="523" cy="284" r="3" fill="white" fill-opacity="0.3"/>
<circle cx="624" cy="276" r="3" fill="white" fill-opacity="0.3"/>
<circle cx="1079" cy="476" r="3" fill="white" fill-opacity="0.3"/>
<circle cx="987" cy="425" r="3" fill="white" fill-opacity="0.3"/>
<circle cx="913" cy="444" r="3" fill="white" fill-opacity="0.3"/>
<circle cx="1014" cy="436" r="3" fill="white" fill-opacity="0.3"/>
<circle cx="959" cy="386" r="3" fill="white" fill-opacity="0.3"/>
<circle cx="867" cy="335" r="3" fill="white" fill-opacity="0.3"/>
<circle cx="793" cy="354" r="3" fill="white" fill-opacity="0.3"/>
<circle cx="894" cy="346" r="3" fill="white" fill-opacity="0.3"/>
<circle cx="949" cy="128" r="3" fill="white" fill-opacity="0.3"/>
<circle cx="337" cy="207" r="3" fill="white" fill-opacity="0.3"/>
<circle cx="123" cy="104" r="3" fill="white" fill-opacity="0.3"/>
<circle cx="224" cy="96" r="3" fill="white" fill-opacity="0.3"/>
<circle cx="169" cy="46" r="3" fill="white" fill-opacity="0.3"/>
<circle cx="3" cy="14" r="3" fill="white" fill-opacity="0.3"/>
<circle cx="104" cy="6" r="3" fill="white" fill-opacity="0.3"/>
<circle cx="559" cy="206" r="3" fill="white" fill-opacity="0.3"/>
<circle cx="467" cy="155" r="3" fill="white" fill-opacity="0.3"/>
<circle cx="393" cy="174" r="3" fill="white" fill-opacity="0.3"/>
<circle cx="494" cy="166" r="3" fill="white" fill-opacity="0.3"/>
<circle cx="439" cy="116" r="3" fill="white" fill-opacity="0.3"/>
<circle cx="347" cy="65" r="3" fill="white" fill-opacity="0.3"/>
<circle cx="273" cy="84" r="3" fill="white" fill-opacity="0.3"/>
<circle cx="374" cy="76" r="3" fill="white" fill-opacity="0.3"/>
<circle cx="827" cy="207" r="3" fill="white" fill-opacity="0.3"/>
<circle cx="613" cy="104" r="3" fill="white" fill-opacity="0.3"/>
<circle cx="714" cy="96" r="3" fill="white" fill-opacity="0.3"/>
<circle cx="659" cy="46" r="3" fill="white" fill-opacity="0.3"/>
<circle cx="493" cy="14" r="3" fill="white" fill-opacity="0.3"/>
<circle cx="594" cy="6" r="3" fill="white" fill-opacity="0.3"/>
<circle cx="1049" cy="206" r="3" fill="white" fill-opacity="0.3"/>
<circle cx="957" cy="155" r="3" fill="white" fill-opacity="0.3"/>
<circle cx="883" cy="174" r="3" fill="white" fill-opacity="0.3"/>
<circle cx="984" cy="166" r="3" fill="white" fill-opacity="0.3"/>
<circle cx="929" cy="116" r="3" fill="white" fill-opacity="0.3"/>
<circle cx="837" cy="65" r="3" fill="white" fill-opacity="0.3"/>
<circle cx="763" cy="84" r="3" fill="white" fill-opacity="0.3"/>
<circle cx="864" cy="76" r="3" fill="white" fill-opacity="0.3"/>
<circle cx="1167" cy="387" r="3" fill="white" fill-opacity="0.3"/>
<circle cx="953" cy="284" r="3" fill="white" fill-opacity="0.3"/>
<circle cx="1054" cy="276" r="3" fill="white" fill-opacity="0.3"/>
<circle cx="999" cy="226" r="3" fill="white" fill-opacity="0.3"/>
<circle cx="907" cy="175" r="3" fill="white" fill-opacity="0.3"/>
<circle cx="833" cy="194" r="3" fill="white" fill-opacity="0.3"/>
<circle cx="934" cy="186" r="3" fill="white" fill-opacity="0.3"/>
<circle cx="1389" cy="386" r="3" fill="white" fill-opacity="0.3"/>
<circle cx="1297" cy="335" r="3" fill="white" fill-opacity="0.3"/>
<circle cx="1223" cy="354" r="3" fill="white" fill-opacity="0.3"/>
<circle cx="1324" cy="346" r="3" fill="white" fill-opacity="0.3"/>
<circle cx="1269" cy="296" r="3" fill="white" fill-opacity="0.3"/>
<circle cx="1177" cy="245" r="3" fill="white" fill-opacity="0.3"/>
<circle cx="1103" cy="264" r="3" fill="white" fill-opacity="0.3"/>
<circle cx="1204" cy="256" r="3" fill="white" fill-opacity="0.3"/>
<circle cx="1259" cy="38" r="3" fill="white" fill-opacity="0.3"/>
<circle cx="1207" cy="187" r="3" fill="white" fill-opacity="0.3"/>
<circle cx="993" cy="84" r="3" fill="white" fill-opacity="0.3"/>
<circle cx="1094" cy="76" r="3" fill="white" fill-opacity="0.3"/>
<circle cx="1039" cy="26" r="3" fill="white" fill-opacity="0.3"/>
<circle cx="1337" cy="135" r="3" fill="white" fill-opacity="0.3"/>
<circle cx="1263" cy="154" r="3" fill="white" fill-opacity="0.3"/>
<circle cx="1364" cy="146" r="3" fill="white" fill-opacity="0.3"/>
<circle cx="1309" cy="96" r="3" fill="white" fill-opacity="0.3"/>
<circle cx="1217" cy="45" r="3" fill="white" fill-opacity="0.3"/>
<circle cx="1143" cy="64" r="3" fill="white" fill-opacity="0.3"/>
<circle cx="1244" cy="56" r="3" fill="white" fill-opacity="0.3"/>
<circle cx="1207" cy="457" r="3" fill="white" fill-opacity="0.3"/>
<circle cx="993" cy="354" r="3" fill="white" fill-opacity="0.3"/>
<circle cx="1094" cy="346" r="3" fill="white" fill-opacity="0.3"/>
<circle cx="1039" cy="296" r="3" fill="white" fill-opacity="0.3"/>
<circle cx="947" cy="245" r="3" fill="white" fill-opacity="0.3"/>
<circle cx="873" cy="264" r="3" fill="white" fill-opacity="0.3"/>
<circle cx="974" cy="256" r="3" fill="white" fill-opacity="0.3"/>
<circle cx="1337" cy="405" r="3" fill="white" fill-opacity="0.3"/>
<circle cx="1263" cy="424" r="3" fill="white" fill-opacity="0.3"/>
<circle cx="1364" cy="416" r="3" fill="white" fill-opacity="0.3"/>
<circle cx="1309" cy="366" r="3" fill="white" fill-opacity="0.3"/>
<circle cx="1217" cy="315" r="3" fill="white" fill-opacity="0.3"/>
<circle cx="1143" cy="334" r="3" fill="white" fill-opacity="0.3"/>
<circle cx="1244" cy="326" r="3" fill="white" fill-opacity="0.3"/>
<circle cx="1299" cy="108" r="3" fill="white" fill-opacity="0.3"/>
<circle cx="393" cy="467" r="3" fill="white" fill-opacity="0.3"/>
<circle cx="179" cy="364" r="3" fill="white" fill-opacity="0.3"/>
<circle cx="280" cy="356" r="3" fill="white" fill-opacity="0.3"/>
<circle cx="225" cy="306" r="3" fill="white" fill-opacity="0.3"/>
<circle cx="133" cy="255" r="3" fill="white" fill-opacity="0.3"/>
<circle cx="59" cy="274" r="3" fill="white" fill-opacity="0.3"/>
<circle cx="160" cy="266" r="3" fill="white" fill-opacity="0.3"/>
<circle cx="615" cy="466" r="3" fill="white" fill-opacity="0.3"/>
<circle cx="523" cy="415" r="3" fill="white" fill-opacity="0.3"/>
<circle cx="449" cy="434" r="3" fill="white" fill-opacity="0.3"/>
<circle cx="550" cy="426" r="3" fill="white" fill-opacity="0.3"/>
<circle cx="495" cy="376" r="3" fill="white" fill-opacity="0.3"/>
<circle cx="403" cy="325" r="3" fill="white" fill-opacity="0.3"/>
<circle cx="329" cy="344" r="3" fill="white" fill-opacity="0.3"/>
<circle cx="430" cy="336" r="3" fill="white" fill-opacity="0.3"/>
<circle cx="485" cy="118" r="3" fill="white" fill-opacity="0.3"/>
<circle cx="263" cy="226" r="3" fill="white" fill-opacity="0.3"/>
<circle cx="364" cy="218" r="3" fill="white" fill-opacity="0.3"/>
<circle cx="309" cy="168" r="3" fill="white" fill-opacity="0.3"/>
<circle cx="217" cy="117" r="3" fill="white" fill-opacity="0.3"/>
<circle cx="143" cy="136" r="3" fill="white" fill-opacity="0.3"/>
<circle cx="244" cy="128" r="3" fill="white" fill-opacity="0.3"/>
<circle cx="699" cy="328" r="3" fill="white" fill-opacity="0.3"/>
<circle cx="607" cy="277" r="3" fill="white" fill-opacity="0.3"/>
<circle cx="533" cy="296" r="3" fill="white" fill-opacity="0.3"/>
<circle cx="634" cy="288" r="3" fill="white" fill-opacity="0.3"/>
<circle cx="579" cy="238" r="3" fill="white" fill-opacity="0.3"/>
<circle cx="487" cy="187" r="3" fill="white" fill-opacity="0.3"/>
<circle cx="413" cy="206" r="3" fill="white" fill-opacity="0.3"/>
<circle cx="514" cy="198" r="3" fill="white" fill-opacity="0.3"/>
<circle cx="206" cy="547" r="3" fill="white" fill-opacity="0.3"/>
<circle cx="110" cy="577" r="3" fill="white" fill-opacity="0.3"/>
<circle cx="203" cy="600" r="3" fill="white" fill-opacity="0.3"/>
</svg>
