<svg width="1440" height="904" viewBox="0 0 1440 904" fill="none" xmlns="http://www.w3.org/2000/svg">
<circle cx="994" cy="696" r="6" fill="white" fill-opacity="0.3"/>
<circle cx="907" cy="749" r="6" fill="white" fill-opacity="0.3"/>
<circle cx="1057" cy="777" r="6" fill="white" fill-opacity="0.3"/>
<circle cx="1146" cy="608" r="6" fill="white" fill-opacity="0.3"/>
<circle cx="1303" cy="726" r="6" fill="white" fill-opacity="0.3"/>
<circle cx="1197" cy="747" r="6" fill="white" fill-opacity="0.3"/>
<circle cx="1261" cy="619" r="6" fill="white" fill-opacity="0.3"/>
<circle cx="933" cy="813" r="6" fill="white" fill-opacity="0.3"/>
<circle cx="871" cy="700" r="6" fill="white" fill-opacity="0.3"/>
<circle cx="1023" cy="660" r="6" fill="white" fill-opacity="0.3"/>
<circle cx="168" cy="567" r="6" fill="white" fill-opacity="0.3"/>
<circle cx="81" cy="620" r="6" fill="white" fill-opacity="0.3"/>
<circle cx="231" cy="648" r="6" fill="white" fill-opacity="0.3"/>
<circle cx="320" cy="479" r="6" fill="white" fill-opacity="0.3"/>
<circle cx="477" cy="597" r="6" fill="white" fill-opacity="0.3"/>
<circle cx="371" cy="618" r="6" fill="white" fill-opacity="0.3"/>
<circle cx="435" cy="490" r="6" fill="white" fill-opacity="0.3"/>
<circle cx="1127" cy="201" r="6" fill="white" fill-opacity="0.3"/>
<circle cx="1277" cy="229" r="6" fill="white" fill-opacity="0.3"/>
<circle cx="1366" cy="60" r="6" fill="white" fill-opacity="0.3"/>
<circle cx="1417" cy="199" r="6" fill="white" fill-opacity="0.3"/>
<circle cx="1153" cy="265" r="6" fill="white" fill-opacity="0.3"/>
<circle cx="1091" cy="152" r="6" fill="white" fill-opacity="0.3"/>
<circle cx="1243" cy="112" r="6" fill="white" fill-opacity="0.3"/>
<circle cx="388" cy="19" r="6" fill="white" fill-opacity="0.3"/>
<circle cx="301" cy="72" r="6" fill="white" fill-opacity="0.3"/>
<circle cx="451" cy="100" r="6" fill="white" fill-opacity="0.3"/>
<circle cx="697" cy="49" r="6" fill="white" fill-opacity="0.3"/>
<circle cx="591" cy="70" r="6" fill="white" fill-opacity="0.3"/>
<circle cx="1241" cy="357" r="6" fill="white" fill-opacity="0.3"/>
<circle cx="707" cy="589" r="6" fill="white" fill-opacity="0.3"/>
<circle cx="857" cy="617" r="6" fill="white" fill-opacity="0.3"/>
<circle cx="946" cy="448" r="6" fill="white" fill-opacity="0.3"/>
<circle cx="1103" cy="566" r="6" fill="white" fill-opacity="0.3"/>
<circle cx="997" cy="587" r="6" fill="white" fill-opacity="0.3"/>
<circle cx="1061" cy="459" r="6" fill="white" fill-opacity="0.3"/>
<circle cx="733" cy="653" r="6" fill="white" fill-opacity="0.3"/>
<circle cx="671" cy="540" r="6" fill="white" fill-opacity="0.3"/>
<circle cx="823" cy="500" r="6" fill="white" fill-opacity="0.3"/>
<circle cx="31" cy="488" r="6" fill="white" fill-opacity="0.3"/>
<circle cx="120" cy="319" r="6" fill="white" fill-opacity="0.3"/>
<circle cx="277" cy="437" r="6" fill="white" fill-opacity="0.3"/>
<circle cx="171" cy="458" r="6" fill="white" fill-opacity="0.3"/>
<circle cx="235" cy="330" r="6" fill="white" fill-opacity="0.3"/>
<circle cx="1041" cy="197" r="6" fill="white" fill-opacity="0.3"/>
<circle cx="1305" cy="229" r="6" fill="white" fill-opacity="0.3"/>
<circle cx="977" cy="423" r="6" fill="white" fill-opacity="0.3"/>
<circle cx="1276" cy="398" r="6" fill="white" fill-opacity="0.3"/>
<circle cx="1433" cy="516" r="6" fill="white" fill-opacity="0.3"/>
<circle cx="1327" cy="537" r="6" fill="white" fill-opacity="0.3"/>
<circle cx="1391" cy="409" r="6" fill="white" fill-opacity="0.3"/>
<circle cx="1063" cy="603" r="6" fill="white" fill-opacity="0.3"/>
<circle cx="1001" cy="490" r="6" fill="white" fill-opacity="0.3"/>
<circle cx="1153" cy="450" r="6" fill="white" fill-opacity="0.3"/>
<circle cx="298" cy="357" r="6" fill="white" fill-opacity="0.3"/>
<circle cx="211" cy="410" r="6" fill="white" fill-opacity="0.3"/>
<circle cx="361" cy="438" r="6" fill="white" fill-opacity="0.3"/>
<circle cx="450" cy="269" r="6" fill="white" fill-opacity="0.3"/>
<circle cx="607" cy="387" r="6" fill="white" fill-opacity="0.3"/>
<circle cx="501" cy="408" r="6" fill="white" fill-opacity="0.3"/>
<circle cx="565" cy="280" r="6" fill="white" fill-opacity="0.3"/>
<circle cx="1371" cy="147" r="6" fill="white" fill-opacity="0.3"/>
<circle cx="17" cy="287" r="6" fill="white" fill-opacity="0.3"/>
<circle cx="781" cy="47" r="6" fill="white" fill-opacity="0.3"/>
<circle cx="1045" cy="79" r="6" fill="white" fill-opacity="0.3"/>
<circle cx="717" cy="273" r="6" fill="white" fill-opacity="0.3"/>
<circle cx="1016" cy="248" r="6" fill="white" fill-opacity="0.3"/>
<circle cx="1173" cy="366" r="6" fill="white" fill-opacity="0.3"/>
<circle cx="1067" cy="387" r="6" fill="white" fill-opacity="0.3"/>
<circle cx="1131" cy="259" r="6" fill="white" fill-opacity="0.3"/>
<circle cx="803" cy="453" r="6" fill="white" fill-opacity="0.3"/>
<circle cx="741" cy="340" r="6" fill="white" fill-opacity="0.3"/>
<circle cx="893" cy="300" r="6" fill="white" fill-opacity="0.3"/>
<circle cx="38" cy="207" r="6" fill="white" fill-opacity="0.3"/>
<circle cx="101" cy="288" r="6" fill="white" fill-opacity="0.3"/>
<circle cx="190" cy="119" r="6" fill="white" fill-opacity="0.3"/>
<circle cx="347" cy="237" r="6" fill="white" fill-opacity="0.3"/>
<circle cx="241" cy="258" r="6" fill="white" fill-opacity="0.3"/>
<circle cx="305" cy="130" r="6" fill="white" fill-opacity="0.3"/>
<circle cx="1111" cy="-3" r="6" fill="white" fill-opacity="0.3"/>
<circle cx="1435" cy="19" r="6" fill="white" fill-opacity="0.3"/>
<circle cx="1107" cy="213" r="6" fill="white" fill-opacity="0.3"/>
<circle cx="915" cy="310" r="6" fill="white" fill-opacity="0.3"/>
<circle cx="1067" cy="270" r="6" fill="white" fill-opacity="0.3"/>
<circle cx="212" cy="177" r="6" fill="white" fill-opacity="0.3"/>
<circle cx="125" cy="230" r="6" fill="white" fill-opacity="0.3"/>
<circle cx="275" cy="258" r="6" fill="white" fill-opacity="0.3"/>
<circle cx="364" cy="89" r="6" fill="white" fill-opacity="0.3"/>
<circle cx="521" cy="207" r="6" fill="white" fill-opacity="0.3"/>
<circle cx="415" cy="228" r="6" fill="white" fill-opacity="0.3"/>
<circle cx="479" cy="100" r="6" fill="white" fill-opacity="0.3"/>
<circle cx="241" cy="870" r="6" fill="white" fill-opacity="0.3"/>
<circle cx="391" cy="898" r="6" fill="white" fill-opacity="0.3"/>
<circle cx="480" cy="729" r="6" fill="white" fill-opacity="0.3"/>
<circle cx="637" cy="847" r="6" fill="white" fill-opacity="0.3"/>
<circle cx="531" cy="868" r="6" fill="white" fill-opacity="0.3"/>
<circle cx="595" cy="740" r="6" fill="white" fill-opacity="0.3"/>
<circle cx="107" cy="684" r="6" fill="white" fill-opacity="0.3"/>
<circle cx="45" cy="571" r="6" fill="white" fill-opacity="0.3"/>
<circle cx="197" cy="531" r="6" fill="white" fill-opacity="0.3"/>
</svg>
