<svg width="1404" height="466" viewBox="0 0 1404 466" fill="none" xmlns="http://www.w3.org/2000/svg">
<circle cx="233" cy="182" r="3" fill="white" fill-opacity="0.3"/>
<circle cx="183" cy="152" r="3" fill="white" fill-opacity="0.3"/>
<circle cx="188" cy="193" r="3" fill="white" fill-opacity="0.3"/>
<circle cx="218" cy="203" r="3" fill="white" fill-opacity="0.3"/>
<circle cx="283" cy="232" r="3" fill="white" fill-opacity="0.3"/>
<circle cx="233" cy="202" r="3" fill="white" fill-opacity="0.3"/>
<circle cx="238" cy="243" r="3" fill="white" fill-opacity="0.3"/>
<circle cx="268" cy="253" r="3" fill="white" fill-opacity="0.3"/>
<circle cx="53" cy="172" r="3" fill="white" fill-opacity="0.3"/>
<circle cx="3" cy="142" r="3" fill="white" fill-opacity="0.3"/>
<circle cx="8" cy="183" r="3" fill="white" fill-opacity="0.3"/>
<circle cx="358" cy="333" r="3" fill="white" fill-opacity="0.3"/>
<circle cx="423" cy="362" r="3" fill="white" fill-opacity="0.3"/>
<circle cx="373" cy="332" r="3" fill="white" fill-opacity="0.3"/>
<circle cx="378" cy="373" r="3" fill="white" fill-opacity="0.3"/>
<circle cx="408" cy="383" r="3" fill="white" fill-opacity="0.3"/>
<circle cx="193" cy="302" r="3" fill="white" fill-opacity="0.3"/>
<circle cx="143" cy="272" r="3" fill="white" fill-opacity="0.3"/>
<circle cx="573" cy="282" r="3" fill="white" fill-opacity="0.3"/>
<circle cx="578" cy="323" r="3" fill="white" fill-opacity="0.3"/>
<circle cx="608" cy="333" r="3" fill="white" fill-opacity="0.3"/>
<circle cx="393" cy="252" r="3" fill="white" fill-opacity="0.3"/>
<circle cx="343" cy="222" r="3" fill="white" fill-opacity="0.3"/>
<circle cx="348" cy="263" r="3" fill="white" fill-opacity="0.3"/>
<circle cx="698" cy="413" r="3" fill="white" fill-opacity="0.3"/>
<circle cx="763" cy="442" r="3" fill="white" fill-opacity="0.3"/>
<circle cx="713" cy="412" r="3" fill="white" fill-opacity="0.3"/>
<circle cx="718" cy="453" r="3" fill="white" fill-opacity="0.3"/>
<circle cx="748" cy="463" r="3" fill="white" fill-opacity="0.3"/>
<circle cx="533" cy="382" r="3" fill="white" fill-opacity="0.3"/>
<circle cx="658" cy="183" r="3" fill="white" fill-opacity="0.3"/>
<circle cx="1008" cy="333" r="3" fill="white" fill-opacity="0.3"/>
<circle cx="1073" cy="362" r="3" fill="white" fill-opacity="0.3"/>
<circle cx="1023" cy="332" r="3" fill="white" fill-opacity="0.3"/>
<circle cx="1028" cy="373" r="3" fill="white" fill-opacity="0.3"/>
<circle cx="1058" cy="383" r="3" fill="white" fill-opacity="0.3"/>
<circle cx="843" cy="302" r="3" fill="white" fill-opacity="0.3"/>
<circle cx="793" cy="272" r="3" fill="white" fill-opacity="0.3"/>
<circle cx="1223" cy="282" r="3" fill="white" fill-opacity="0.3"/>
<circle cx="1228" cy="323" r="3" fill="white" fill-opacity="0.3"/>
<circle cx="1258" cy="333" r="3" fill="white" fill-opacity="0.3"/>
<circle cx="1043" cy="252" r="3" fill="white" fill-opacity="0.3"/>
<circle cx="993" cy="222" r="3" fill="white" fill-opacity="0.3"/>
<circle cx="773" cy="42" r="3" fill="white" fill-opacity="0.3"/>
<circle cx="778" cy="83" r="3" fill="white" fill-opacity="0.3"/>
<circle cx="1128" cy="233" r="3" fill="white" fill-opacity="0.3"/>
<circle cx="1193" cy="262" r="3" fill="white" fill-opacity="0.3"/>
<circle cx="1143" cy="232" r="3" fill="white" fill-opacity="0.3"/>
<circle cx="1148" cy="273" r="3" fill="white" fill-opacity="0.3"/>
<circle cx="1178" cy="283" r="3" fill="white" fill-opacity="0.3"/>
<circle cx="963" cy="202" r="3" fill="white" fill-opacity="0.3"/>
<circle cx="1088" cy="3" r="3" fill="white" fill-opacity="0.3"/>
<circle cx="1273" cy="122" r="3" fill="white" fill-opacity="0.3"/>
<circle cx="1223" cy="92" r="3" fill="white" fill-opacity="0.3"/>
<circle cx="998" cy="263" r="3" fill="white" fill-opacity="0.3"/>
<circle cx="1348" cy="413" r="3" fill="white" fill-opacity="0.3"/>
<circle cx="1363" cy="412" r="3" fill="white" fill-opacity="0.3"/>
<circle cx="1368" cy="453" r="3" fill="white" fill-opacity="0.3"/>
<circle cx="1398" cy="463" r="3" fill="white" fill-opacity="0.3"/>
<circle cx="1183" cy="382" r="3" fill="white" fill-opacity="0.3"/>
<circle cx="483" cy="352" r="3" fill="white" fill-opacity="0.3"/>
<circle cx="148" cy="313" r="3" fill="white" fill-opacity="0.3"/>
<circle cx="38" cy="193" r="3" fill="white" fill-opacity="0.3"/>
<circle cx="103" cy="222" r="3" fill="white" fill-opacity="0.3"/>
<circle cx="53" cy="192" r="3" fill="white" fill-opacity="0.3"/>
<circle cx="58" cy="233" r="3" fill="white" fill-opacity="0.3"/>
<circle cx="88" cy="243" r="3" fill="white" fill-opacity="0.3"/>
</svg>
